<svg role="img" viewBox="0 0 24 24" xmlns="http://www.w3.org/2000/svg"><title>OpenAI</title><path d="M22.2819 9.8211a5.9847 5.9847 0 0 0-.5153-4.9066 6.0462 6.0462 0 0 0-3.9471-3.1202 6.0402 6.0402 0 0 0-4.9923.5153L11.0805 3.5143a.2146.2146 0 0 1 .1104.0531.2146.2146 0 0 1 .0531.1104V11.396a.2146.2146 0 0 1-.2146.2146h-.2146a.2146.2146 0 0 1-.2146-.2146l-4.1168-7.3986a6.0402 6.0402 0 0 0-4.9923.5153 6.0462 6.0462 0 0 0-3.1202 3.9471 6.0402 6.0402 0 0 0 .5153 4.9923l2.2532 1.7461a.2146.2146 0 0 1-.0531.2146.2146.2146 0 0 1-.2146.0531H1.0773a.2146.2146 0 0 1-.2146-.2146v-.2146a.2146.2146 0 0 1 .2146-.2146L8.4759 7.9103a6.0402 6.0402 0 0 0-.5153 4.9923 6.0462 6.0462 0 0 0 3.9471 3.1202 6.0402 6.0402 0 0 0 4.9923-.5153l1.7461-2.2532a.2146.2146 0 0 1 .2146-.0531.2146.2146 0 0 1 .0531.2146v3.2532a.2146.2146 0 0 1-.2146.2146h-.2146a.2146.2146 0 0 1-.2146-.2146l-7.3986-4.1168a6.0402 6.0402 0 0 0-.5153 4.9923 6.0462 6.0462 0 0 0 3.1202 3.9471 6.0402 6.0402 0 0 0 4.9923-.5153L21.1462 18.92c.0366-.0276.0827-.0422.1299-.0417a.2146.2146 0 0 1 .1104.0531.2146.2146 0 0 1 .0531.1104v3.2532a.2146.2146 0 0 1-.2146.2146h-.2146a.2146.2146 0 0 1-.2146-.2146L13.8118 18.423a6.0402 6.0402 0 0 0 .5153-4.9923 6.0462 6.0462 0 0 0-3.9471-3.1202 6.0402 6.0402 0 0 0-4.9923.5153L3.1345 12.8732a.2146.2146 0 0 1-.1104-.0531.2146.2146 0 0 1-.0531-.1104V5.4566c0-.0569.0226-.1115.0628-.1517a.2146.2146 0 0 1 .1517-.0628h.2146a.2146.2146 0 0 1 .2146.2146l4.1168 7.3986a6.0402 6.0402 0 0 0 4.9923-.5153 6.0462 6.0462 0 0 0 3.1202-3.9471 6.0402 6.0402 0 0 0-.5153-4.9923l-1.7461 2.2532a.2146.2146 0 0 1-.2146.0531.2146.2146 0 0 1-.0531-.2146V2.2627c0-.0569.0226-.1115.0628-.1517a.2146.2146 0 0 1 .1517-.0628h.2146a.2146.2146 0 0 1 .2146.2146l7.3986 4.1168a6.0402 6.0402 0 0 0 .5153-4.9923z" fill="#38bdf8"/></svg>
